<svg xmlns="http://www.w3.org/2000/svg" xmlns:xlink="http://www.w3.org/1999/xlink" style="isolation:isolate" viewBox="531 440 598.882 360" width="598.882pt" height="360pt">
  <defs>
    <clipPath id="_clipPath_BZCnLtEgS19b6eRkn96MiInN0J8uSLq3">
      <rect x="531" y="440" width="640" height="360"/>
    </clipPath>
  </defs>
  <g clip-path="url(#_clipPath_BZCnLtEgS19b6eRkn96MiInN0J8uSLq3)">
    <path d=" M 1129.882 800 L 1129.882 800 L 1004.949 800 C 973.432 778.157 946.208 748.777 925.931 713.252 C 915.185 715.946 904.284 717.977 893.288 719.333 C 849.704 724.803 805.445 718.995 764.748 702.466 C 724.587 686.051 689.624 659.061 663.575 624.366 C 623.94 571.417 608.592 505.05 618.19 440 L 665.544 440 C 655.695 495.195 667.716 552.086 700.717 596.168 C 742.827 652.434 814.474 681.802 887.697 672.812 C 893.758 672.068 899.87 671.051 905.865 669.791 C 893.083 634.394 887.488 596.804 889.407 559.219 C 890.257 529.307 904.41 501.336 928.005 482.933 C 942.186 471.809 959.126 464.754 977.01 462.521 L 977.01 462.521 C 1012.162 458.236 1046.963 472.842 1068.527 500.931 C 1096.381 537.137 1096.602 587.493 1069.066 623.941 C 1064.278 630.258 1036.449 656.9 1025.326 665.337 C 1008.47 678.15 990.206 688.998 970.89 697.669 C 1007.021 755.486 1066.878 791.879 1129.882 796.508 L 1129.882 440 L 531 440 L 531.978 800 L 531.978 800 L 1129.882 800 Z  M 982.808 509.063 C 973.238 510.261 964.177 514.046 956.598 520.011 C 943.955 529.897 936.378 544.906 935.93 560.949 C 935.215 574.756 935.691 588.599 937.353 602.324 C 939.567 620.513 943.898 638.382 950.258 655.566 C 966.965 648.192 982.751 638.886 997.293 627.839 C 1006.359 620.963 1029.057 598.944 1032.468 594.91 C 1045.411 577.625 1046.793 554.286 1035.982 535.594 C 1025.171 516.902 1004.251 506.463 982.815 509.062 L 982.808 509.063 L 982.808 509.063 Z " fill-rule="evenodd" fill="rgb(235,235,235)"/>
  </g>
</svg>