<?xml version="1.0" standalone="no"?><!-- Generator: Gravit.io --><svg xmlns="http://www.w3.org/2000/svg" xmlns:xlink="http://www.w3.org/1999/xlink" style="isolation:isolate" viewBox="0 0 1490.915 1607.294" width="1490.915" height="1607.294"><defs><clipPath id="_clipPath_VKC9ooS9XgQN886MtAn7aUBKp6LiFZxw"><rect width="1490.915" height="1607.294"/></clipPath></defs><g clip-path="url(#_clipPath_VKC9ooS9XgQN886MtAn7aUBKp6LiFZxw)"><path d=" M 1444.601 1209.627 C 1372.771 1333.39 1229.491 1400.771 1079.526 1381.256 C 1073.219 1396.083 1066.005 1410.508 1057.927 1424.449 C 1025.55 1480.233 979.779 1526.625 925.584 1558.646 C 871.294 1590.767 809.316 1607.577 746.236 1607.29 C 602.187 1606.471 471.105 1516.172 412.243 1377.142 C 262.425 1394.827 119.082 1325.854 47.036 1201.372 C 15.533 1146.728 -0.614 1084.584 0.305 1021.516 C 1.088 958.61 18.614 895.941 50.99 840.157 C 59.194 826.055 68.271 812.478 78.167 799.507 C -12.996 679.076 -25.48 521.293 46.3 397.616 C 118.18 273.766 261.46 206.386 411.374 225.987 C 417.719 211.067 424.983 196.555 433.125 182.535 C 465.451 126.837 511.222 80.445 565.454 48.56 C 619.757 16.525 681.703 -0.251 744.751 0.003 C 888.714 0.772 1019.795 91.071 1078.708 230.015 C 1228.475 212.416 1371.819 281.389 1443.951 405.922 C 1475.466 460.59 1491.597 522.77 1490.632 585.864 C 1489.712 648.806 1472.223 711.611 1439.897 767.309 C 1431.748 781.364 1422.734 794.899 1412.907 807.836 C 1503.897 928.167 1516.38 1085.95 1444.601 1209.627 Z  M 833.68 1102.024 L 833.68 1102.024 C 859.58 1057.536 907.059 1030.045 958.536 1029.732 C 1024.932 1029.252 1083.475 1073.166 1101.597 1137.042 C 1104.76 1148.127 1111.195 1203.776 1111.233 1224.031 C 1111.287 1254.818 1107.826 1285.511 1100.918 1315.512 C 1218.37 1326.101 1330.186 1271.099 1385.703 1175.444 C 1441.169 1079.875 1433.495 955.639 1366.261 858.923 C 1326.245 895.767 1279.234 924.197 1228.019 942.524 C 1182.881 959.546 1132.268 953.387 1092.53 926.035 C 1052.792 898.683 1028.966 853.606 1028.748 805.365 C 1028.673 780.492 1035.029 756.022 1047.199 734.33 C 1080.601 677.176 1148.107 648.717 1211.155 665.191 C 1222.311 668.082 1273.82 690.692 1291.55 700.982 C 1318.37 716.506 1343.356 735.002 1366.034 756.121 C 1370.957 749.034 1375.77 741.538 1380.237 733.84 C 1434.248 640.78 1435.986 528.018 1384.858 439.609 C 1329.242 343.393 1217.455 287.185 1100.031 296.269 C 1112.248 349.283 1113.747 404.204 1104.44 457.805 C 1097.819 500.632 1072.276 538.204 1034.887 560.114 C 977.578 593.949 904.677 584.998 857.256 538.303 C 809.835 491.608 799.761 418.853 832.708 361.029 C 838.869 350.44 846.358 340.682 854.994 331.993 C 867.556 319.513 907.227 291.202 925.804 280.709 C 952.595 265.466 981.026 253.303 1010.553 244.453 C 960.327 137.953 855.947 68.586 744.728 67.974 C 642.514 67.386 545.517 124.745 491.708 217.46 C 487.29 225.071 483.119 233.055 479.257 241.104 C 508.727 250.339 537.075 262.836 563.772 278.362 C 584.248 290.288 603.679 303.925 621.857 319.126 C 655.789 346.4 675.791 387.384 676.413 430.914 C 676.972 469.578 662.054 506.862 634.979 534.468 C 607.904 562.075 570.917 577.715 532.25 577.907 C 465.832 578.456 407.252 534.514 389.189 470.597 C 383.69 450.987 379.563 404.31 379.554 383.608 C 379.542 352.792 383.019 322.074 389.919 292.04 C 272.567 281.279 160.801 336.195 105.285 431.85 C 49.818 527.418 57.492 651.654 124.726 748.37 C 164.756 711.544 211.763 683.116 262.968 664.77 C 308.106 647.798 358.691 653.979 398.415 681.32 C 438.138 708.662 461.974 753.706 462.239 801.928 L 462.147 802.684 C 462.111 827.325 455.774 851.548 443.738 873.05 C 443.487 873.482 443.236 873.915 443.036 874.261 C 442.835 874.607 442.584 875.039 442.333 875.472 C 409.957 931.256 343.054 958.677 279.696 942.139 C 268.453 939.198 216.808 916.623 199.251 906.434 C 172.428 890.913 147.442 872.417 124.766 851.295 C 119.794 858.468 114.98 865.965 110.463 873.749 C 56.452 966.809 54.764 1079.484 105.893 1167.893 C 161.609 1263.936 273.482 1320.194 390.769 1311.147 C 378.504 1258.154 377.034 1203.234 386.447 1149.661 C 389.108 1131.919 395.098 1114.84 404.101 1099.322 C 437.082 1042.908 503.552 1015.306 566.794 1031.762 C 611.187 1043.031 647.756 1074.415 665.63 1116.584 C 683.505 1158.754 680.628 1206.857 657.855 1246.596 C 651.736 1257.126 644.31 1266.841 635.756 1275.509 C 627.813 1283.617 582.739 1316.655 564.997 1326.707 C 538.194 1341.986 509.746 1354.178 480.197 1363.049 C 530.459 1469.686 634.89 1538.967 746.109 1539.579 C 848.322 1540.167 945.269 1482.894 999.079 1390.179 C 1003.546 1382.482 1007.718 1374.497 1011.58 1366.449 C 959.324 1350.206 910.829 1323.712 868.93 1288.513 C 834.979 1261.287 814.955 1220.326 814.324 1176.811 C 813.864 1150.587 820.555 1124.733 833.68 1102.024 Z  M 1106.685 767.699 C 1100.188 779.262 1096.797 792.311 1096.842 805.575 C 1096.903 831.435 1109.648 855.62 1130.945 870.288 C 1152.243 884.956 1179.382 888.24 1203.565 879.076 C 1222.413 872.372 1240.639 864.032 1258.035 854.152 C 1281.05 841.107 1302.439 825.384 1321.757 807.31 C 1302.336 788.939 1280.84 772.893 1257.704 759.498 C 1243.779 751.417 1201.061 732.983 1193.462 730.538 C 1159.856 721.952 1124.637 736.742 1107.237 766.747 L 1106.685 767.699 Z  M 892.715 1136.171 C 885.702 1148.333 882.144 1162.179 882.423 1176.215 C 882.774 1199.547 893.513 1221.507 911.715 1236.11 C 927.098 1249.071 943.569 1260.681 960.947 1270.812 C 983.971 1284.2 1008.48 1294.855 1033.976 1302.56 C 1040.089 1276.715 1043.152 1250.243 1043.102 1223.685 C 1043.102 1207.151 1037.48 1161.455 1035.794 1154.002 C 1026.369 1120.437 994.971 1097.242 959.47 1097.45 C 938.747 1097.572 918.931 1105.967 904.428 1120.77 C 899.907 1125.405 895.973 1130.577 892.715 1136.171 L 892.715 1136.171 Z  M 463.172 1133.606 C 458.328 1141.959 455.11 1151.155 453.687 1160.706 C 450.191 1180.373 448.409 1200.306 448.362 1220.281 C 448.358 1246.779 451.465 1273.185 457.62 1298.957 C 483.17 1291.52 507.76 1281.111 530.885 1267.945 C 545.242 1259.743 582.078 1232.331 587.732 1227.172 C 592.197 1222.666 596.066 1217.607 599.244 1212.117 C 613.199 1188.074 612.794 1157.893 598.186 1133.459 C 584.067 1109.531 558.34 1094.863 530.558 1094.9 C 502.776 1094.938 477.088 1109.676 463.035 1133.642 L 463.172 1133.606 Z  M 891.98 394.967 C 874.456 425.895 879.872 464.736 905.188 489.691 C 930.505 514.645 969.419 519.501 1000.092 501.533 C 1020.105 489.773 1033.754 469.622 1037.25 446.674 C 1045.427 400.787 1044.059 353.707 1033.231 308.372 C 1007.679 315.804 983.088 326.213 959.965 339.385 C 944.725 348.114 910.337 372.9 903.506 379.689 C 899.014 384.259 895.112 389.375 891.893 394.917 L 891.98 394.967 Z  M 456.961 304.82 L 456.961 304.82 C 450.811 330.659 447.748 357.135 447.835 383.695 C 447.797 402.288 451.849 441.523 454.926 452.558 C 464.645 486.711 495.958 510.182 531.467 509.93 C 564.473 509.753 593.765 488.742 604.514 457.534 C 615.262 426.326 605.12 391.734 579.222 371.269 C 563.845 358.302 547.372 346.692 529.99 336.568 C 506.959 323.192 482.452 312.538 456.961 304.82 L 456.961 304.82 Z  M 169.18 800.069 C 188.583 818.465 210.062 834.54 233.183 847.968 C 247.021 856 289.789 874.347 297.425 876.928 C 331.239 885.801 366.182 870.817 384.202 839.768 C 390.752 828.192 394.162 815.105 394.095 801.805 C 394.034 775.945 381.289 751.76 359.992 737.092 C 338.694 722.424 311.555 719.139 287.372 728.303 C 268.549 734.994 250.34 743.305 232.952 753.141 C 209.939 766.246 188.537 781.996 169.18 800.069 L 169.18 800.069 L 169.18 800.069 Z " fill="#0C646F"/></g></svg>