<svg id="menu" xmlns="http://www.w3.org/2000/svg" xmlns:xlink="http://www.w3.org/1999/xlink" width="18" height="12" viewBox="0 0 18 12">
  <defs>
    <clipPath id="clip-path">
      <path id="_Icon_小olor" data-name=" Icon 小olor" d="M.948,12A.95.95,0,0,1,0,11.051v-.1A.951.951,0,0,1,.948,10h16.1a.952.952,0,0,1,.949.95v.1a.951.951,0,0,1-.949.949Zm0-5A.951.951,0,0,1,0,6.051v-.1A.95.95,0,0,1,.948,5h16.1A.951.951,0,0,1,18,5.949v.1a.952.952,0,0,1-.949.95Zm0-5A.95.95,0,0,1,0,1.051v-.1A.95.95,0,0,1,.948,0h16.1A.951.951,0,0,1,18,.949v.1A.951.951,0,0,1,17.051,2Z" fill="#0c646f"/>
    </clipPath>
  </defs>
  <path id="_Icon_小olor-2" data-name=" Icon 小olor" d="M.948,12A.95.95,0,0,1,0,11.051v-.1A.951.951,0,0,1,.948,10h16.1a.952.952,0,0,1,.949.95v.1a.951.951,0,0,1-.949.949ZM.737,7A.866.866,0,0,1,0,6.051v-.1A.865.865,0,0,1,.737,5H13.262A.866.866,0,0,1,14,5.949v.1a.867.867,0,0,1-.739.95ZM.948,2A.95.95,0,0,1,0,1.051v-.1A.95.95,0,0,1,.948,0h16.1A.951.951,0,0,1,18,.949v.1A.951.951,0,0,1,17.051,2Z" fill="#0c646f"/>
</svg>
